<svg preserveAspectRatio="none" overflow="visible" style="display: block;" width="25" height="24" viewBox="0 0 25 24" fill="none" xmlns="http://www.w3.org/2000/svg">
<g id="Icon">
<path id="Vector" d="M12.5 23L20.72 21.18C20.9467 21.1267 21.1333 21.0067 21.28 20.82C21.4267 20.6333 21.5 20.4267 21.5 20.2V10.22C21.5 9.20667 21.2633 8.26 20.79 7.38C20.3167 6.5 19.66 5.78 18.82 5.22L12.5 1L6.18 5.22C5.34 5.78 4.68333 6.5 4.21 7.38C3.73667 8.26 3.5 9.20667 3.5 10.22V20.2C3.5 20.4267 3.57333 20.6333 3.72 20.82C3.86667 21.0067 4.05333 21.1267 4.28 21.18L12.5 23ZM12.5 20.96L5.5 19.4V10.22C5.5 9.54 5.65667 8.90667 5.97 8.32C6.28333 7.73333 6.72 7.25333 7.28 6.88L12.5 3.4L17.72 6.88C18.28 7.25333 18.7167 7.73333 19.03 8.32C19.3433 8.90667 19.5 9.54 19.5 10.22V19.4L12.5 20.96ZM16.96 15.78L18.36 14.36L12 8L7.76 12.24L9.18 13.66L12 10.82L16.96 15.78Z" fill="white"/>
</g>
</svg>
