<svg preserveAspectRatio="none" overflow="visible" style="display: block;" width="85" height="85" viewBox="0 0 85 85" fill="none" xmlns="http://www.w3.org/2000/svg">
<path id="Vector" d="M42.5 0C36.72 0 31.195 1.105 25.925 3.315C20.8817 5.46833 16.3908 8.51417 12.4525 12.4525C8.51417 16.3908 5.46833 20.8817 3.315 25.925C1.105 31.195 0 36.72 0 42.5C0 48.28 1.105 53.805 3.315 59.075C5.46833 64.1183 8.51417 68.6092 12.4525 72.5475C16.3908 76.4858 20.8817 79.5317 25.925 81.685C31.195 83.895 36.72 85 42.5 85C48.28 85 53.805 83.895 59.075 81.685C64.1183 79.5317 68.6092 76.4858 72.5475 72.5475C76.4858 68.6092 79.5317 64.1183 81.685 59.075C83.895 53.805 85 48.28 85 42.5C85 36.72 83.895 31.195 81.685 25.925C79.5317 20.8817 76.4858 16.3908 72.5475 12.4525C68.6092 8.51417 64.1183 5.46833 59.075 3.315C53.805 1.105 48.28 0 42.5 0ZM42.5 8.5C48.6767 8.5 54.4 10.0583 59.67 13.175C64.77 16.1783 68.8217 20.23 71.825 25.33C74.9417 30.6 76.5 36.3233 76.5 42.5C76.5 48.6767 74.9417 54.4 71.825 59.67C68.8217 64.77 64.77 68.8217 59.67 71.825C54.4 74.9417 48.6767 76.5 42.5 76.5C36.3233 76.5 30.6 74.9417 25.33 71.825C20.23 68.8217 16.1783 64.77 13.175 59.67C10.0583 54.4 8.5 48.6767 8.5 42.5C8.5 36.3233 10.0583 30.6 13.175 25.33C16.1783 20.23 20.23 16.1783 25.33 13.175C30.6 10.0583 36.3233 8.5 42.5 8.5ZM46.75 42.5H63.75V34H38.25V63.75H46.75V42.5Z" fill="#F8D6C0"/>
</svg>
