<svg width="139" height="139" viewBox="0 0 139 139" fill="none" xmlns="http://www.w3.org/2000/svg">
<foreignObject x="-2.58887" y="-2.58887" width="143.662" height="143.662"><div xmlns="http://www.w3.org/1999/xhtml" style="backdrop-filter:blur(3px);clip-path:url(#bgblur_0_7_1949_clip_path);height:100%;width:100%"></div></foreignObject><g filter="url(#filter0_dii_7_1949)" data-figma-bg-blur-radius="6">
<rect width="72" height="72" rx="16" transform="matrix(-0.984043 0.177932 0.177932 0.984043 98.2622 17.4111)" fill="url(#paint0_linear_7_1949)" shape-rendering="crispEdges"/>
<rect x="-0.403055" y="0.580988" width="71" height="71" rx="15.5" transform="matrix(-0.984043 0.177932 0.177932 0.984043 97.3592 17.4921)" stroke="white" stroke-opacity="0.14" shape-rendering="crispEdges"/>
<g filter="url(#filter1_d_7_1949)">
<path d="M69.5508 57.4081L68.2163 50.0278L76.1459 58.7561L72.4557 59.4234L73.7902 66.8037L65.8606 58.0753L69.5508 57.4081ZM79.2867 48.026L59.6059 51.5847C59.2615 51.6469 58.9919 51.8185 58.7971 52.0993C58.6022 52.3801 58.536 52.6927 58.5983 53.0371L61.2672 67.7978C61.3295 68.1422 61.5011 68.4118 61.7819 68.6066C62.0627 68.8014 62.3753 68.8677 62.7197 68.8054L82.4006 65.2468C82.745 65.1845 83.0146 65.0129 83.2094 64.7321C83.4042 64.4513 83.4705 64.1387 83.4082 63.7943L80.7392 49.0337C80.6769 48.6892 80.5054 48.4196 80.2246 48.2248C79.9438 48.03 79.6312 47.9637 79.2867 48.026ZM58.0354 56.9497L55.5753 57.3945L56.9098 64.7749L59.3699 64.33L58.0354 56.9497Z" fill="#F98E50"/>
</g>
<rect width="70" height="70" rx="16" transform="matrix(-0.984043 0.177932 0.177932 0.984043 97.4561 18.5731)" fill="url(#paint1_radial_7_1949)"/>
</g>
<defs>
<filter id="filter0_dii_7_1949" x="-2.58887" y="-2.58887" width="143.662" height="143.662" filterUnits="userSpaceOnUse" color-interpolation-filters="sRGB">
<feFlood flood-opacity="0" result="BackgroundImageFix"/>
<feColorMatrix in="SourceAlpha" type="matrix" values="0 0 0 0 0 0 0 0 0 0 0 0 0 0 0 0 0 0 127 0" result="hardAlpha"/>
<feOffset dy="10"/>
<feGaussianBlur stdDeviation="15"/>
<feComposite in2="hardAlpha" operator="out"/>
<feColorMatrix type="matrix" values="0 0 0 0 0 0 0 0 0 0 0 0 0 0 0 0 0 0 0.4 0"/>
<feBlend mode="normal" in2="BackgroundImageFix" result="effect1_dropShadow_7_1949"/>
<feBlend mode="normal" in="SourceGraphic" in2="effect1_dropShadow_7_1949" result="shape"/>
<feColorMatrix in="SourceAlpha" type="matrix" values="0 0 0 0 0 0 0 0 0 0 0 0 0 0 0 0 0 0 127 0" result="hardAlpha"/>
<feMorphology radius="1" operator="erode" in="SourceAlpha" result="effect2_innerShadow_7_1949"/>
<feOffset dy="-2"/>
<feGaussianBlur stdDeviation="2"/>
<feComposite in2="hardAlpha" operator="arithmetic" k2="-1" k3="1"/>
<feColorMatrix type="matrix" values="0 0 0 0 0 0 0 0 0 0 0 0 0 0 0 0 0 0 0.35 0"/>
<feBlend mode="normal" in2="shape" result="effect2_innerShadow_7_1949"/>
<feColorMatrix in="SourceAlpha" type="matrix" values="0 0 0 0 0 0 0 0 0 0 0 0 0 0 0 0 0 0 127 0" result="hardAlpha"/>
<feMorphology radius="1" operator="erode" in="SourceAlpha" result="effect3_innerShadow_7_1949"/>
<feOffset dy="1"/>
<feComposite in2="hardAlpha" operator="arithmetic" k2="-1" k3="1"/>
<feColorMatrix type="matrix" values="0 0 0 0 1 0 0 0 0 1 0 0 0 0 1 0 0 0 0.25 0"/>
<feBlend mode="normal" in2="effect2_innerShadow_7_1949" result="effect3_innerShadow_7_1949"/>
</filter>
<clipPath id="bgblur_0_7_1949_clip_path" transform="translate(2.58887 2.58887)"><rect width="72" height="72" rx="16" transform="matrix(-0.984043 0.177932 0.177932 0.984043 98.2622 17.4111)"/>
</clipPath><filter id="filter1_d_7_1949" x="46.6687" y="36.7484" width="45.1567" height="48.9859" filterUnits="userSpaceOnUse" color-interpolation-filters="sRGB">
<feFlood flood-opacity="0" result="BackgroundImageFix"/>
<feColorMatrix in="SourceAlpha" type="matrix" values="0 0 0 0 0 0 0 0 0 0 0 0 0 0 0 0 0 0 127 0" result="hardAlpha"/>
<feOffset dy="2"/>
<feGaussianBlur stdDeviation="2"/>
<feComposite in2="hardAlpha" operator="out"/>
<feColorMatrix type="matrix" values="0 0 0 0 0 0 0 0 0 0 0 0 0 0 0 0 0 0 0.5 0"/>
<feBlend mode="normal" in2="BackgroundImageFix" result="effect1_dropShadow_7_1949"/>
<feBlend mode="normal" in="SourceGraphic" in2="effect1_dropShadow_7_1949" result="shape"/>
</filter>
<linearGradient id="paint0_linear_7_1949" x1="7.2419" y1="-5.07083" x2="64.7581" y2="77.0708" gradientUnits="userSpaceOnUse">
<stop stop-color="white" stop-opacity="0.16"/>
<stop offset="1" stop-color="white" stop-opacity="0.02"/>
</linearGradient>
<radialGradient id="paint1_radial_7_1949" cx="0" cy="0" r="1" gradientUnits="userSpaceOnUse" gradientTransform="translate(21 14) scale(74.411)">
<stop stop-color="white" stop-opacity="0.25"/>
<stop offset="0.6" stop-color="white" stop-opacity="0"/>
</radialGradient>
</defs>
</svg>
