<svg width="44" height="44" viewBox="0 0 44 44" fill="none" xmlns="http://www.w3.org/2000/svg">
<rect width="44" height="44" rx="8" fill="#FFEDE2"/>
<g clip-path="url(#clip0_31_8227)">
<path d="M19.3333 36.6666C19.3333 37.0202 19.1929 37.3593 18.9428 37.6094C18.6928 37.8594 18.3536 37.9999 18 37.9999H7.33333C6.97971 37.9999 6.64057 37.8594 6.39052 37.6094C6.14048 37.3593 6 37.0202 6 36.6666C6 36.313 6.14048 35.9738 6.39052 35.7238C6.64057 35.4737 6.97971 35.3333 7.33333 35.3333H18C18.3536 35.3333 18.6928 35.4737 18.9428 35.7238C19.1929 35.9738 19.3333 36.313 19.3333 36.6666Z" fill="#F0782A"/>
<path d="M7.33333 32.6667H15.3333C15.687 32.6667 16.0261 32.5262 16.2761 32.2761C16.5262 32.0261 16.6667 31.687 16.6667 31.3333C16.6667 30.9797 16.5262 30.6406 16.2761 30.3905C16.0261 30.1405 15.687 30 15.3333 30H7.33333C6.97971 30 6.64057 30.1405 6.39052 30.3905C6.14048 30.6406 6 30.9797 6 31.3333C6 31.687 6.14048 32.0261 6.39052 32.2761C6.64057 32.5262 6.97971 32.6667 7.33333 32.6667Z" fill="#F0782A"/>
<path d="M7.33333 27.3334H12.6667C13.0203 27.3334 13.3594 27.1929 13.6095 26.9429C13.8595 26.6928 14 26.3537 14 26.0001C14 25.6465 13.8595 25.3073 13.6095 25.0573C13.3594 24.8072 13.0203 24.6667 12.6667 24.6667H7.33333C6.97971 24.6667 6.64057 24.8072 6.39052 25.0573C6.14048 25.3073 6 25.6465 6 26.0001C6 26.3537 6.14048 26.6928 6.39052 26.9429C6.64057 27.1929 6.97971 27.3334 7.33333 27.3334Z" fill="#F0782A"/>
<path d="M22 6C17.7565 6 13.6869 7.68571 10.6863 10.6863C7.68571 13.6869 6 17.7565 6 22C6 22.0813 6.01067 22.16 6.012 22.2413C6.43546 22.0861 6.88235 22.0045 7.33333 22H12.6667C13.3212 21.9978 13.9662 22.1568 14.5447 22.4629C15.1233 22.769 15.6175 23.2129 15.9839 23.7553C16.3502 24.2977 16.5774 24.9219 16.6453 25.5729C16.7132 26.2239 16.6198 26.8817 16.3733 27.488C16.9193 27.6313 17.4283 27.8894 17.8665 28.2451C18.3047 28.6008 18.662 29.046 18.9144 29.5508C19.1668 30.0556 19.3086 30.6085 19.3302 31.1725C19.3519 31.7365 19.2529 32.2986 19.04 32.8213C19.5732 32.9573 20.072 33.2038 20.5039 33.5447C20.9359 33.8856 21.2916 34.3134 21.5478 34.8004C21.8041 35.2873 21.9552 35.8227 21.9916 36.3718C22.0279 36.9209 21.9485 37.4715 21.7587 37.988C21.84 37.988 21.9187 38 22 38C26.2435 38 30.3131 36.3143 33.3137 33.3137C36.3143 30.3131 38 26.2435 38 22C38 17.7565 36.3143 13.6869 33.3137 10.6863C30.3131 7.68571 26.2435 6 22 6ZM26.9427 26.9427C26.6926 27.1926 26.3536 27.333 26 27.333C25.6464 27.333 25.3074 27.1926 25.0573 26.9427L21.0573 22.9427C20.8073 22.6927 20.6667 22.3536 20.6667 22V15.3333C20.6667 14.9797 20.8071 14.6406 21.0572 14.3905C21.3072 14.1405 21.6464 14 22 14C22.3536 14 22.6928 14.1405 22.9428 14.3905C23.1929 14.6406 23.3333 14.9797 23.3333 15.3333V21.448L26.9427 25.0573C27.1926 25.3074 27.333 25.6464 27.333 26C27.333 26.3536 27.1926 26.6926 26.9427 26.9427Z" fill="#F0782A"/>
</g>
<defs>
<clipPath id="clip0_31_8227">
<rect width="32" height="32" fill="white" transform="translate(6 6)"/>
</clipPath>
</defs>
</svg>
